{
	"asset":{
		"generator":"Khronos glTF Blender I/O v4.1.62",
		"version":"2.0"
	},
	"scene":0,
	"scenes":[
		{
			"name":"Scene",
			"nodes":[
				0
			]
		}
	],
	"nodes":[
		{
			"mesh":0,
			"name":"david",
			"scale":[
				0.02896040678024292,
				0.02896040678024292,
				0.02896040678024292
			]
		}
	],
	"meshes":[
		{
			"name":"David head by 1D",
			"primitives":[
				{
					"attributes":{
						"POSITION":0,
						"NORMAL":1,
						"TEXCOORD_0":2
					},
					"indices":3
				}
			]
		}
	],
	"accessors":[
		{
			"bufferView":0,
			"componentType":5126,
			"count":24055,
			"max":[
				71.79173278808594,
				124.71142578125,
				76.94635772705078
			],
			"min":[
				-58.71986389160156,
				-72.40470886230469,
				-73.49862670898438
			],
			"type":"VEC3"
		},
		{
			"bufferView":1,
			"componentType":5126,
			"count":24055,
			"type":"VEC3"
		},
		{
			"bufferView":2,
			"componentType":5126,
			"count":24055,
			"type":"VEC2"
		},
		{
			"bufferView":3,
			"componentType":5123,
			"count":139992,
			"type":"SCALAR"
		}
	],
	"bufferViews":[
		{
			"buffer":0,
			"byteLength":288660,
			"byteOffset":0,
			"target":34962
		},
		{
			"buffer":0,
			"byteLength":288660,
			"byteOffset":288660,
			"target":34962
		},
		{
			"buffer":0,
			"byteLength":192440,
			"byteOffset":577320,
			"target":34962
		},
		{
			"buffer":0,
			"byteLength":279984,
			"byteOffset":769760,
			"target":34963
		}
	],
	"buffers":[
		{
			"byteLength":1049744,
			"uri":"david.bin"
		}
	]
}
