{
	"asset":{
		"generator":"Khronos glTF Blender I/O v4.1.62",
		"version":"2.0"
	},
	"scene":0,
	"scenes":[
		{
			"name":"Scene",
			"nodes":[
				2
			]
		}
	],
	"nodes":[
		{
			"mesh":0,
			"name":"Object_2",
			"translation":[
				-0.5749807357788086,
				-0.16475439071655273,
				1.3560075759887695
			]
		},
		{
			"children":[
				0
			],
			"name":"model.obj.cleaner.gles"
		},
		{
			"children":[
				1
			],
			"name":"Sketchfab_model",
			"rotation":[
				-0.70710688829422,
				0,
				0,
				0.7071066498756409
			]
		}
	],
	"materials":[
		{
			"doubleSided":true,
			"name":"Material.001",
			"pbrMetallicRoughness":{
				"baseColorFactor":[
					0.800000011920929,
					0.800000011920929,
					0.800000011920929,
					1
				],
				"metallicFactor":0,
				"roughnessFactor":0.5
			}
		}
	],
	"meshes":[
		{
			"name":"Object_0.001",
			"primitives":[
				{
					"attributes":{
						"POSITION":0,
						"NORMAL":1,
						"TEXCOORD_0":2
					},
					"indices":3,
					"material":0
				}
			]
		}
	],
	"accessors":[
		{
			"bufferView":0,
			"componentType":5126,
			"count":89516,
			"max":[
				0.9428520202636719,
				0.7521653175354004,
				1.0831079483032227
			],
			"min":[
				-0.8808584213256836,
				-1.0084524154663086,
				-1.2702598571777344
			],
			"type":"VEC3"
		},
		{
			"bufferView":1,
			"componentType":5126,
			"count":89516,
			"type":"VEC3"
		},
		{
			"bufferView":2,
			"componentType":5126,
			"count":89516,
			"type":"VEC2"
		},
		{
			"bufferView":3,
			"componentType":5125,
			"count":448383,
			"type":"SCALAR"
		}
	],
	"bufferViews":[
		{
			"buffer":0,
			"byteLength":1074192,
			"byteOffset":0,
			"target":34962
		},
		{
			"buffer":0,
			"byteLength":1074192,
			"byteOffset":1074192,
			"target":34962
		},
		{
			"buffer":0,
			"byteLength":716128,
			"byteOffset":2148384,
			"target":34962
		},
		{
			"buffer":0,
			"byteLength":1793532,
			"byteOffset":2864512,
			"target":34963
		}
	],
	"buffers":[
		{
			"byteLength":4658044,
			"uri":"untitled.bin"
		}
	]
}
